<svg xmlns="http://www.w3.org/2000/svg" xmlns:xlink="http://www.w3.org/1999/xlink" width="48" zoomAndPan="magnify" viewBox="0 0 36 36.000001" height="48" preserveAspectRatio="xMidYMid meet" version="1.0"><defs><g/><clipPath id="f1d1d8ef9d"><path d="M 0.488281 0 L 35.511719 0 L 35.511719 35.027344 L 0.488281 35.027344 Z M 0.488281 0 " clip-rule="nonzero"/></clipPath><clipPath id="5f19dd3a52"><path d="M 1 0.207031 L 3 0.207031 L 3 3 L 1 3 Z M 1 0.207031 " clip-rule="nonzero"/></clipPath><clipPath id="ead0c6ab06"><path d="M 2 0.207031 L 4 0.207031 L 4 3 L 2 3 Z M 2 0.207031 " clip-rule="nonzero"/></clipPath><clipPath id="2bfc94a39f"><path d="M 3 0.207031 L 5 0.207031 L 5 3 L 3 3 Z M 3 0.207031 " clip-rule="nonzero"/></clipPath><clipPath id="7a37e5b379"><path d="M 5 0.207031 L 7 0.207031 L 7 3 L 5 3 Z M 5 0.207031 " clip-rule="nonzero"/></clipPath><clipPath id="587905d136"><path d="M 6 0.207031 L 9 0.207031 L 9 3 L 6 3 Z M 6 0.207031 " clip-rule="nonzero"/></clipPath><clipPath id="15197206a4"><path d="M 8 0.207031 L 10 0.207031 L 10 3 L 8 3 Z M 8 0.207031 " clip-rule="nonzero"/></clipPath><clipPath id="edadae9c21"><path d="M 9 0.207031 L 11 0.207031 L 11 3 L 9 3 Z M 9 0.207031 " clip-rule="nonzero"/></clipPath><clipPath id="8ffd5af09f"><path d="M 10 0.207031 L 12.632812 0.207031 L 12.632812 3 L 10 3 Z M 10 0.207031 " clip-rule="nonzero"/></clipPath><clipPath id="77d1702508"><rect x="0" width="13" y="0" height="4"/></clipPath><clipPath id="88263ab308"><path d="M 0.488281 2.453125 L 35.511719 2.453125 L 35.511719 32.371094 L 0.488281 32.371094 Z M 0.488281 2.453125 " clip-rule="nonzero"/></clipPath><clipPath id="b55bbffd1d"><path d="M 0.488281 3 L 18 3 L 18 32.371094 L 0.488281 32.371094 Z M 0.488281 3 " clip-rule="nonzero"/></clipPath><clipPath id="2e35e2bda5"><path d="M 18 2.453125 L 35.511719 2.453125 L 35.511719 32 L 18 32 Z M 18 2.453125 " clip-rule="nonzero"/></clipPath></defs><g clip-path="url(#f1d1d8ef9d)"><path fill="#ffffff" d="M 0.488281 0 L 35.511719 0 L 35.511719 35.027344 L 0.488281 35.027344 Z M 0.488281 0 " fill-opacity="1" fill-rule="nonzero"/><path fill="#ffffff" d="M 0.488281 0 L 35.511719 0 L 35.511719 35.027344 L 0.488281 35.027344 Z M 0.488281 0 " fill-opacity="1" fill-rule="nonzero"/></g><g transform="matrix(1, 0, 0, 1, 7, 11)"><g clip-path="url(#77d1702508)"><g clip-path="url(#5f19dd3a52)"><g fill="#135044" fill-opacity="1"><g transform="translate(1.022438, 2.335663)"><g><path d="M 0.484375 -1.234375 L 0.484375 -0.84375 L 1.15625 -0.84375 L 1.15625 -0.625 L 0.484375 -0.625 L 0.484375 0 L 0.1875 0 L 0.1875 -1.46875 L 1.21875 -1.46875 L 1.21875 -1.234375 Z M 0.484375 -1.234375 "/></g></g></g></g><g clip-path="url(#ead0c6ab06)"><g fill="#135044" fill-opacity="1"><g transform="translate(2.2396, 2.335663)"><g><path d="M 0.984375 -0.4375 L 0.484375 -0.4375 L 0.34375 0 L 0.03125 0 L 0.5625 -1.46875 L 0.921875 -1.46875 L 1.453125 0 L 1.125 0 Z M 0.734375 -1.21875 L 0.5625 -0.671875 L 0.90625 -0.671875 Z M 0.734375 -1.21875 "/></g></g></g></g><g clip-path="url(#2bfc94a39f)"><g fill="#135044" fill-opacity="1"><g transform="translate(3.63307, 2.335663)"><g><path d="M 1.25 -0.375 C 1.269531 -0.195312 1.304688 -0.0703125 1.359375 0 L 1.03125 0 C 1 -0.09375 0.976562 -0.203125 0.96875 -0.328125 C 0.945312 -0.492188 0.878906 -0.582031 0.765625 -0.59375 C 0.742188 -0.59375 0.707031 -0.59375 0.65625 -0.59375 L 0.484375 -0.59375 L 0.484375 0 L 0.1875 0 L 0.1875 -1.46875 L 0.71875 -1.46875 C 0.800781 -1.46875 0.875 -1.460938 0.9375 -1.453125 C 1.050781 -1.441406 1.144531 -1.40625 1.21875 -1.34375 C 1.289062 -1.28125 1.328125 -1.1875 1.328125 -1.0625 C 1.328125 -0.96875 1.300781 -0.890625 1.25 -0.828125 C 1.195312 -0.773438 1.125 -0.734375 1.03125 -0.703125 C 1.15625 -0.660156 1.226562 -0.550781 1.25 -0.375 Z M 0.484375 -0.8125 L 0.6875 -0.8125 C 0.738281 -0.8125 0.773438 -0.8125 0.796875 -0.8125 C 0.941406 -0.820312 1.015625 -0.890625 1.015625 -1.015625 C 1.015625 -1.085938 0.992188 -1.140625 0.953125 -1.171875 C 0.921875 -1.203125 0.875 -1.222656 0.8125 -1.234375 C 0.78125 -1.234375 0.742188 -1.234375 0.703125 -1.234375 L 0.484375 -1.234375 Z M 0.484375 -0.8125 "/></g></g></g></g><g clip-path="url(#7a37e5b379)"><g fill="#135044" fill-opacity="1"><g transform="translate(4.979807, 2.335663)"><g><path d="M 1.765625 -1.46875 L 1.765625 0 L 1.484375 0 L 1.484375 -0.671875 C 1.484375 -0.910156 1.484375 -1.078125 1.484375 -1.171875 C 1.441406 -1.003906 1.394531 -0.84375 1.34375 -0.6875 L 1.140625 0 L 0.8125 0 L 0.609375 -0.6875 C 0.554688 -0.863281 0.515625 -1.023438 0.484375 -1.171875 C 0.484375 -1.078125 0.484375 -0.910156 0.484375 -0.671875 L 0.484375 0 L 0.1875 0 L 0.1875 -1.46875 L 0.65625 -1.46875 L 0.984375 -0.265625 L 1.3125 -1.46875 Z M 1.765625 -1.46875 "/></g></g></g></g><g clip-path="url(#587905d136)"><g fill="#135044" fill-opacity="1"><g transform="translate(6.842725, 2.335663)"><g><path d="M 0.984375 -0.4375 L 0.484375 -0.4375 L 0.34375 0 L 0.03125 0 L 0.5625 -1.46875 L 0.921875 -1.46875 L 1.453125 0 L 1.125 0 Z M 0.734375 -1.21875 L 0.5625 -0.671875 L 0.90625 -0.671875 Z M 0.734375 -1.21875 "/></g></g></g></g><g clip-path="url(#15197206a4)"><g fill="#135044" fill-opacity="1"><g transform="translate(8.236195, 2.335663)"><g><path d="M 0.90625 -1.453125 C 1.019531 -1.441406 1.113281 -1.394531 1.1875 -1.3125 C 1.269531 -1.238281 1.3125 -1.140625 1.3125 -1.015625 C 1.3125 -0.878906 1.269531 -0.769531 1.1875 -0.6875 C 1.113281 -0.613281 1.019531 -0.570312 0.90625 -0.5625 C 0.84375 -0.550781 0.773438 -0.546875 0.703125 -0.546875 L 0.484375 -0.546875 L 0.484375 0 L 0.1875 0 L 0.1875 -1.46875 L 0.703125 -1.46875 C 0.773438 -1.46875 0.84375 -1.460938 0.90625 -1.453125 Z M 0.828125 -0.796875 C 0.941406 -0.804688 1 -0.875 1 -1 C 1 -1.132812 0.941406 -1.210938 0.828125 -1.234375 C 0.796875 -1.234375 0.75 -1.234375 0.6875 -1.234375 L 0.484375 -1.234375 L 0.484375 -0.78125 L 0.6875 -0.78125 C 0.75 -0.78125 0.796875 -0.785156 0.828125 -0.796875 Z M 0.828125 -0.796875 "/></g></g></g></g><g clip-path="url(#edadae9c21)"><g fill="#135044" fill-opacity="1"><g transform="translate(9.517082, 2.335663)"><g><path d="M 1.25 -0.375 C 1.269531 -0.195312 1.304688 -0.0703125 1.359375 0 L 1.03125 0 C 1 -0.09375 0.976562 -0.203125 0.96875 -0.328125 C 0.945312 -0.492188 0.878906 -0.582031 0.765625 -0.59375 C 0.742188 -0.59375 0.707031 -0.59375 0.65625 -0.59375 L 0.484375 -0.59375 L 0.484375 0 L 0.1875 0 L 0.1875 -1.46875 L 0.71875 -1.46875 C 0.800781 -1.46875 0.875 -1.460938 0.9375 -1.453125 C 1.050781 -1.441406 1.144531 -1.40625 1.21875 -1.34375 C 1.289062 -1.28125 1.328125 -1.1875 1.328125 -1.0625 C 1.328125 -0.96875 1.300781 -0.890625 1.25 -0.828125 C 1.195312 -0.773438 1.125 -0.734375 1.03125 -0.703125 C 1.15625 -0.660156 1.226562 -0.550781 1.25 -0.375 Z M 0.484375 -0.8125 L 0.6875 -0.8125 C 0.738281 -0.8125 0.773438 -0.8125 0.796875 -0.8125 C 0.941406 -0.820312 1.015625 -0.890625 1.015625 -1.015625 C 1.015625 -1.085938 0.992188 -1.140625 0.953125 -1.171875 C 0.921875 -1.203125 0.875 -1.222656 0.8125 -1.234375 C 0.78125 -1.234375 0.742188 -1.234375 0.703125 -1.234375 L 0.484375 -1.234375 Z M 0.484375 -0.8125 "/></g></g></g></g><g clip-path="url(#8ffd5af09f)"><g fill="#135044" fill-opacity="1"><g transform="translate(10.86382, 2.335663)"><g><path d="M 0.828125 -1.5 C 1.054688 -1.5 1.234375 -1.425781 1.359375 -1.28125 C 1.492188 -1.144531 1.5625 -0.960938 1.5625 -0.734375 C 1.5625 -0.503906 1.492188 -0.316406 1.359375 -0.171875 C 1.234375 -0.0351562 1.054688 0.03125 0.828125 0.03125 C 0.609375 0.03125 0.429688 -0.0351562 0.296875 -0.171875 C 0.171875 -0.316406 0.109375 -0.503906 0.109375 -0.734375 C 0.109375 -0.960938 0.171875 -1.144531 0.296875 -1.28125 C 0.429688 -1.425781 0.609375 -1.5 0.828125 -1.5 Z M 0.53125 -0.328125 C 0.601562 -0.234375 0.703125 -0.1875 0.828125 -0.1875 C 0.960938 -0.1875 1.066406 -0.234375 1.140625 -0.328125 C 1.210938 -0.429688 1.25 -0.566406 1.25 -0.734375 C 1.25 -0.898438 1.210938 -1.03125 1.140625 -1.125 C 1.066406 -1.226562 0.960938 -1.28125 0.828125 -1.28125 C 0.703125 -1.28125 0.601562 -1.226562 0.53125 -1.125 C 0.457031 -1.03125 0.421875 -0.894531 0.421875 -0.71875 C 0.421875 -0.550781 0.457031 -0.421875 0.53125 -0.328125 Z M 0.53125 -0.328125 "/></g></g></g></g></g></g><g clip-path="url(#88263ab308)"><path fill="#135044" d="M 35.503906 3.710938 L 27.386719 11.828125 L 18 2.453125 L 8.613281 11.828125 L 0.496094 3.710938 L 0.496094 15.058594 L 2.9375 17.5 L 0.496094 19.941406 L 0.496094 31.28125 L 8.609375 23.175781 L 18 32.566406 L 27.390625 23.175781 L 35.503906 31.28125 L 35.503906 19.941406 L 33.0625 17.5 L 35.503906 15.058594 Z M 18 21.214844 L 14.285156 17.5 L 18 13.792969 L 21.714844 17.5 Z M 18 21.214844 " fill-opacity="1" fill-rule="nonzero"/></g><g clip-path="url(#b55bbffd1d)"><path fill="#43a46f" d="M 0.496094 15.058594 L 0.496094 3.710938 L 18 21.214844 L 18 32.566406 Z M 0.496094 15.058594 " fill-opacity="1" fill-rule="nonzero"/></g><g clip-path="url(#2e35e2bda5)"><path fill="#43a46f" d="M 35.503906 19.941406 L 35.503906 31.28125 L 18 13.792969 L 18 2.453125 Z M 35.503906 19.941406 " fill-opacity="1" fill-rule="nonzero"/></g></svg>